<svg width="26" height="26" viewBox="0 0 26 26" fill="none" xmlns="http://www.w3.org/2000/svg">
                                                                <path  d="M25.406 12.1967C25.051 11.5568 24.5392 11.0175 23.9187 10.6294L22.5255 9.75818H24.7453C25.229 9.75818 25.6226 9.36467 25.6226 8.88091V8.06775C25.6226 7.80817 25.4111 7.59675 25.1512 7.59675H24.2332C23.2864 7.59675 22.4907 8.25748 22.2838 9.14208L20.9763 6.54314C20.5914 5.77812 20.0028 5.1362 19.2738 4.68689C18.5448 4.23757 17.7071 4 16.8506 4H9.15131C8.29478 4 7.45674 4.23757 6.72776 4.68689C5.99878 5.1362 5.41011 5.77812 5.02521 6.54314L3.70883 9.16026C3.48816 8.29448 2.7021 7.65255 1.76872 7.65255H0.850634C0.59074 7.65255 0.379316 7.86398 0.379316 8.12387V8.93672C0.379316 9.42047 0.772825 9.81398 1.25658 9.81398H3.38676L2.08282 10.6291C1.46354 11.0162 0.94949 11.5583 0.595523 12.1967C0.241269 12.8372 0.0551925 13.557 0.0546875 14.2889V17.5952C0.0546875 17.9944 0.1258 18.3864 0.265792 18.7607L0.35253 18.9929C0.457444 19.2719 0.638254 19.5076 0.878696 19.6788V21.0395C0.878696 21.5692 1.30983 22 1.83951 22H4.69229C5.22228 22 5.6531 21.5692 5.6531 21.0395V18.9221L6.16205 18.5538L19.8389 18.6144L20.3488 18.9833V21.0395C20.3488 21.5692 20.7796 22 21.3096 22H24.1624C24.692 22 25.1232 21.5692 25.1232 21.0395V19.6785C25.3614 19.5079 25.5463 19.2671 25.649 18.9929L25.7358 18.7607C25.8761 18.3867 25.9472 17.9948 25.9472 17.5952V14.2889C25.9472 13.5587 25.76 12.8355 25.406 12.1967ZM5.74877 16.4517H2.86984C2.32486 16.4517 1.8816 16.0084 1.8816 15.4634V14.5243C1.8816 14.2379 2.11471 14.0048 2.40107 14.0048H3.46138C4.72258 14.0048 5.74877 15.031 5.74877 16.2922V16.4517ZM18.3685 16.0993H7.6334V15.1426H18.3685V16.0993ZM18.3481 12.6626C18.1086 12.8801 17.8608 13.1049 17.6242 13.3291L16.9663 12.6342C17.2106 12.4034 17.4619 12.175 17.7049 11.9544C18.4437 11.2841 19.1513 10.6412 19.7056 9.8937C19.7448 9.84109 19.7831 9.78815 19.8201 9.73426C19.857 9.68164 19.8928 9.62871 19.9278 9.57481H6.07403C6.10911 9.62871 6.14483 9.68164 6.18182 9.73426C6.21881 9.78815 6.25708 9.84109 6.2963 9.8937C6.85021 10.6412 7.55782 11.2837 8.29669 11.9544C8.53968 12.175 8.79129 12.4034 9.03524 12.6342L8.37769 13.3291C8.14075 13.1049 7.89329 12.8801 7.65381 12.6626C6.7437 11.8367 5.80553 10.9849 5.14447 9.8937C5.11258 9.84109 5.08133 9.78783 5.05104 9.73426C5.02074 9.68164 4.99172 9.62871 4.96334 9.57481H4.92795L6.1646 7.1165C6.73573 5.98094 7.88022 5.27555 9.15131 5.27555H16.8506C18.1217 5.27555 19.2658 5.98094 19.837 7.1165L21.0736 9.57481H21.0382C21.0098 9.62871 20.9808 9.68164 20.9505 9.73426C20.9202 9.78783 20.8893 9.84109 20.8574 9.8937C20.196 10.9849 19.2582 11.8367 18.3481 12.6626ZM24.1203 15.4634C24.1203 16.0084 23.6767 16.4517 23.1317 16.4517H20.2531V16.2922C20.2531 15.031 21.279 14.0048 22.5405 14.0048H23.6005C23.8872 14.0048 24.1203 14.2379 24.1203 14.5243V15.4634Z" fill="white"></path>
                                                            </svg>