<svg width="60" height="60" viewBox="0 0 60 60" fill="none" xmlns="http://www.w3.org/2000/svg">
                                                    <path d="M14.9062 19.3124L10.125 18.2812C8.8125 17.9999 7.59375 19.0312 7.59375 20.3437V22.3124C7.59375 23.9062 8.71875 24.2812 10.3125 24.2812H15.75C17.0625 24.2812 17.5312 23.7187 17.5312 22.9687V22.6874C17.625 21.0937 16.5 19.6874 14.9062 19.3124ZM9.375 22.4062V20.3437C9.375 20.1562 9.5625 19.9687 9.75 20.0624L14.5312 21.0937C15.1875 21.2812 15.6562 21.8437 15.75 22.4999C13.3125 22.4062 9.65625 22.4999 9.375 22.4062ZM21.1875 25.2187H33C33.4688 25.2187 33.9375 24.8437 33.9375 24.2812C33.9375 23.7187 33.5625 23.3437 33 23.3437H21.1875C20.7188 23.3437 20.25 23.7187 20.25 24.2812C20.25 24.8437 20.7188 25.2187 21.1875 25.2187Z" fill="orange"></path>
                                                    <path d="M59.5312 55.2188L52.9688 44.7188C57.1875 40.4062 58.125 33.6562 54.75 28.4062C53.7188 26.8125 52.4062 25.4062 50.8125 24.375V19.5C50.8125 17.9062 50.3438 16.2188 49.3125 14.8125H51.6562C53.0625 14.8125 54.1875 13.6875 54.1875 12.2812V11.25C54.1875 9.84375 53.0625 8.71875 51.6562 8.71875H50.0625C48.5625 8.71875 47.25 9.46875 46.3125 10.6875L42.6562 3.1875C41.9062 1.3125 40.125 0 38.0625 0H16.125C14.0625 0 12.2812 1.21875 11.5312 3.09375L7.875 10.6875C7.03125 9.46875 5.625 8.71875 4.125 8.71875H2.53125C1.125 8.71875 0 9.84375 0 11.25V12.2812C0 13.6875 1.125 14.8125 2.53125 14.8125H4.875C3.84375 16.125 3.375 17.8125 3.375 19.5V25.125C3.375 27.2812 4.125 29.3438 5.625 31.125V35.3438C5.625 37.2188 7.125 38.7188 9 38.7188H12.4688C14.3438 38.7188 15.8438 37.2188 15.8438 35.3438V33.6562H30.2812C29.9062 36.6562 30.4688 39.75 32.1562 42.4688C35.4375 47.7188 41.8125 49.9688 47.625 48L54.1875 58.5C55.125 60 57 60.375 58.5 59.5312C60 58.5938 60.375 56.7188 59.5312 55.2188ZM50.0625 10.5938H51.6562C52.0312 10.5938 52.3125 10.875 52.3125 11.25V12.2812C52.3125 12.6562 52.0312 12.9375 51.6562 12.9375H47.625C47.5312 12.8438 47.4375 12.6562 47.25 12.4688C47.5312 12.2812 48.1875 10.5938 50.0625 10.5938ZM13.2188 3.84375C13.6875 2.625 14.8125 1.875 16.125 1.875H38.0625C39.375 1.875 40.5 2.625 41.0625 3.9375C41.4375 4.6875 45.2812 12.75 45.75 13.4062H8.53125C8.90625 12.75 8.53125 13.5938 13.2188 3.84375ZM1.875 12.2812V11.25C1.875 10.875 2.15625 10.5938 2.53125 10.5938H4.125C5.0625 10.5938 5.90625 11.0625 6.375 11.8125L6.84375 12.5625C6.75 12.75 6.65625 12.8438 6.46875 13.0312H2.53125C2.15625 12.9375 1.875 12.6562 1.875 12.2812ZM14.0625 35.25C14.0625 36.0938 13.4062 36.75 12.5625 36.75H9C8.15625 36.75 7.5 36.0938 7.5 35.25V32.5312C8.625 33.1875 9.9375 33.5625 11.25 33.5625H14.0625V35.25ZM11.1562 31.7813C7.6875 31.7813 5.15625 28.5 5.15625 25.0312V19.4062C5.15625 17.8125 5.8125 16.3125 6.9375 15.0938H47.1562C48.375 16.3125 48.9375 17.8125 48.9375 19.4062V23.25C48.1875 22.875 47.3438 22.5938 46.5938 22.4062V20.25C46.5938 18.8438 45.2812 17.9062 44.0625 18.1875L39.2812 19.2188C37.7812 19.5938 36.6562 20.9062 36.6562 22.5C36.6562 22.6875 36.5625 23.25 37.0312 23.7188L36.4688 24C35.1562 24.8438 34.125 25.7812 33.1875 26.9062H21.1875C20.7188 26.9062 20.25 27.2812 20.25 27.8438C20.25 28.4062 20.625 28.7812 21.1875 28.7812H31.875C31.3125 29.7188 30.9375 30.75 30.6562 31.6875H11.1562V31.7813ZM40.5 22.5H38.4375C38.5312 21.8438 39 21.2812 39.6562 21.1875C39.75 21.1875 39.75 21.1875 39.6562 21.1875L44.5312 20.1562C44.7188 20.1562 44.9062 20.25 44.9062 20.4375V22.3125C43.4062 22.0312 41.9062 22.125 40.5 22.5ZM33.75 41.4375C30.375 36.0938 32.0625 28.9688 37.4062 25.5938C42.75 22.2188 49.875 23.9062 53.25 29.25C56.625 34.5938 54.9375 41.7188 49.5938 45.0938C44.1562 48.4688 37.125 46.875 33.75 41.4375ZM57.5625 57.9375C57 58.3125 56.1562 58.125 55.7812 57.5625L49.4062 47.3438C49.7812 47.1562 50.1562 46.9688 50.5312 46.6875C50.9062 46.5 51.2812 46.2188 51.5625 45.9375L57.9375 56.1562C58.3125 56.8125 58.125 57.5625 57.5625 57.9375Z" fill="orange"></path>
                                                </svg>