<svg width="60" height="60" viewBox="0 0 60 60" fill="none" xmlns="http://www.w3.org/2000/svg">
                                                    <path d="M41.2502 26.3437C39.094 24.1875 35.6252 24.375 34.5002 25.125L33.094 23.7187L34.7815 22.0312C36.094 20.7187 37.8752 19.875 39.6565 19.875C44.5315 19.6875 47.9065 15 46.5002 10.3125C46.3127 9.6562 45.469 9.4687 45.0002 9.93745L41.6252 13.3125H40.8752L38.5315 10.9687V10.2187L41.9065 6.8437C42.3752 6.37495 42.1877 5.5312 41.5315 5.3437C36.844 3.93745 32.1565 7.4062 31.969 12.1875C31.8752 13.9687 31.1252 15.75 29.8127 17.0625L28.1252 18.6562L23.1565 13.6875L24.0002 12.8437C24.2815 12.5625 24.3752 12.1875 24.1877 11.8125L23.1565 9.6562C23.0627 9.4687 22.969 9.37495 22.7815 9.2812L17.4377 6.2812C17.0627 6.0937 16.6877 6.18745 16.3127 6.4687L14.719 8.06245C14.4377 8.3437 14.344 8.81245 14.5315 9.18745L17.5315 14.5312C17.6252 14.7187 17.719 14.8125 17.9065 14.9062L20.0627 15.9375C20.4377 16.125 20.8127 16.0312 21.094 15.75L21.9377 14.9062L26.9065 19.875L25.219 21.5625C23.9065 22.875 22.1252 23.7187 20.344 23.7187C15.469 23.9062 12.094 28.5937 13.5002 33.2812C13.6877 33.9375 14.5315 34.125 15.0002 33.6562L18.3752 30.2812H19.1252L21.469 32.625V33.375L18.094 36.75C17.6252 37.2187 17.8127 38.0625 18.469 38.25C23.1565 39.6562 27.844 36.1875 28.0315 31.4062C28.1252 29.625 28.8752 27.8437 30.1877 26.5312L31.8752 24.8437L33.2815 26.25C32.344 27.6562 32.344 30.8437 34.5002 32.9062L39.9377 38.3437C41.344 39.75 43.594 39.75 45.0002 38.3437L46.6877 36.6562C48.094 35.25 48.094 33 46.6877 31.5937L41.2502 26.3437ZM20.2502 14.0625L18.9377 13.4062L16.4065 8.9062L17.0627 8.24995L21.5627 10.7812L22.219 12.0937L20.2502 14.0625ZM28.8752 25.3125C27.1877 27 26.2502 29.1562 26.1565 31.4062C26.0627 34.4062 23.6252 36.75 20.6252 36.8437L22.969 34.5C23.1565 34.3125 23.2502 34.125 23.2502 33.8437V32.3437C23.2502 32.0625 23.1565 31.875 22.969 31.6875L20.0627 28.7812C19.8752 28.5937 19.6877 28.5 19.4065 28.5H17.9065C17.6252 28.5 17.4377 28.5937 17.2502 28.7812L15.0002 31.2187C15.0002 28.2187 17.4377 25.7812 20.4377 25.6875C22.6877 25.5937 24.844 24.6562 26.5315 22.9687L31.219 18.2812C32.9065 16.5937 33.844 14.4375 33.9377 12.1875C34.0315 9.18745 36.469 6.8437 39.469 6.74995L37.1252 9.0937C36.9377 9.2812 36.844 9.4687 36.844 9.74995V11.25C36.844 11.5312 36.9377 11.7187 37.1252 11.9062L40.0315 14.8125C40.219 15 40.4065 15.0937 40.6877 15.0937H42.1877C42.469 15.0937 42.6565 15 42.844 14.8125L45.1877 12.4687C45.1877 15.4687 42.844 17.9062 39.7502 18C37.5002 18.0937 35.344 19.0312 33.6565 20.7187L28.8752 25.3125ZM45.469 35.5312L43.7815 37.2187C43.1252 37.875 42.0002 37.875 41.344 37.2187L35.9065 31.7812C32.719 28.5937 36.7502 24.2812 40.1252 27.6562L45.5627 33.0937C46.1252 33.75 46.1252 34.875 45.469 35.5312Z" fill="orange"></path>
                                                    <path d="M38.3438 28.875C37.9688 28.5 37.4062 28.5 37.0312 28.875C36.6563 29.25 36.6563 29.8125 37.0312 30.1875L41.4375 34.5938C41.8125 34.9688 42.375 34.9688 42.75 34.5938C43.125 34.2188 43.125 33.6563 42.75 33.2813L38.3438 28.875Z" fill="orange"></path>
                                                    <path d="M51.75 3.5625L48.4688 0.28125C48.2812 0.09375 48.0938 0 47.8125 0H12.1875C11.9062 0 11.7188 0.09375 11.5313 0.28125L8.25 3.5625C8.0625 3.75 7.96875 4.03125 7.96875 4.21875V39.8438C7.96875 40.125 8.0625 40.3125 8.25 40.5L11.5313 43.7812C11.7188 43.9688 11.9062 44.0625 12.1875 44.0625H25.4062V59.0625C25.4062 59.5312 25.7812 60 26.3438 60C26.9062 60 27.2812 59.625 27.2812 59.0625V44.0625H32.8125V59.0625C32.8125 59.5312 33.1875 60 33.75 60C34.3125 60 34.6875 59.625 34.6875 59.0625V44.0625H47.8125C48.0938 44.0625 48.2812 43.9688 48.4688 43.7812L51.75 40.5C51.9375 40.3125 52.0312 40.125 52.0312 39.8438V4.21875C52.0312 4.03125 51.9375 3.75 51.75 3.5625ZM50.25 39.4688L47.5312 42.1875H12.5625L9.84375 39.4688V4.59375L12.5625 1.875H47.4375L50.1562 4.59375V39.4688H50.25Z" fill="orange"></path>
                                                </svg>