<svg width="58" height="60" viewBox="0 0 58 60" fill="none" xmlns="http://www.w3.org/2000/svg">
                                                    <path d="M15.9688 39.5624L10.9062 38.4374C9.5 38.1562 8.28125 39.1874 8.28125 40.5937V42.7499C8.28125 44.4374 9.59375 44.7187 11.1875 44.8124H17C18.0312 44.8124 18.875 44.4374 18.875 43.4062V43.1249C18.7812 41.3437 17.6562 39.9374 15.9688 39.5624ZM10.0625 42.8437V40.4999C10.0625 40.2187 10.25 40.0312 10.5313 40.1249L15.6875 41.2499C16.4375 41.4374 17 42.0937 17.0937 42.8437C16.9062 42.9374 10.1563 42.9374 10.0625 42.8437ZM47.0938 38.4374L41.9375 39.5624C40.25 39.9374 39.125 41.3437 39.125 43.0312C39.125 43.1249 38.9375 44.3437 40.25 44.6249C40.9062 44.8124 45.125 44.7187 46.9062 44.7187C48.5 44.7187 49.7187 44.3437 49.7187 42.6562V40.4999C49.8125 39.1874 48.5 38.1562 47.0938 38.4374ZM47.9375 42.8437C47.6562 42.9374 41.0938 42.9374 41 42.9374C41.0938 42.1874 41.5625 41.5312 42.3125 41.3437L47.4688 40.2187C47.75 40.1249 47.9375 40.3124 47.9375 40.5937V42.8437ZM35.2812 43.8749H22.7187C22.25 43.8749 21.7812 44.2499 21.7812 44.8124C21.7812 45.3749 22.1562 45.7499 22.7187 45.7499H35.2812C35.75 45.7499 36.2188 45.3749 36.2188 44.8124C36.2188 44.2499 35.8438 43.8749 35.2812 43.8749ZM35.2812 47.7187H22.7187C22.25 47.7187 21.7812 48.0937 21.7812 48.6562C21.7812 49.2187 22.1562 49.5937 22.7187 49.5937H35.2812C35.75 49.5937 36.2188 49.2187 36.2188 48.6562C36.2188 48.0937 35.8438 47.7187 35.2812 47.7187Z" fill="orange"></path>
                                                    <path d="M55.25 28.3125H53.5625C51.9688 28.3125 50.4688 29.0625 49.625 30.4688L47.9375 27.0938C52.8125 24.8438 56.1875 19.9688 56.1875 14.25C56.0938 6.375 49.7188 0 41.9375 0C34.1562 0 27.7812 6.375 27.7812 14.1562C27.7812 15.8438 28.0625 17.4375 28.625 18.9375H17.2812C15.125 18.9375 13.1562 20.25 12.4062 22.2188L8.46875 30.375C7.625 29.0625 6.125 28.2188 4.53125 28.2188H2.75C1.34375 28.2188 0.125 29.4375 0.125 30.8438V31.9687C0.125 33.375 1.25 34.5938 2.75 34.5938H5.46875C4.34375 36 3.78125 37.7812 3.78125 39.6562V45.6562C3.78125 47.9062 4.625 50.1562 6.21875 52.0312V56.5312C6.21875 58.5 7.8125 60 9.6875 60H13.4375C15.4062 60 16.9062 58.4062 16.9062 56.5312V54.75H41V56.5312C41 58.5 42.5938 60 44.4688 60H48.2188C50.1875 60 51.6875 58.4062 51.6875 56.5312V52.0312C53.2812 50.25 54.125 48.0938 54.125 45.75V39.75C54.125 38.625 53.8438 37.4062 53.375 36.375C53.0938 35.8125 52.8125 35.25 52.3438 34.6875H55.25C56.6562 34.6875 57.875 33.5625 57.875 32.0625V30.9375C57.7812 29.4375 56.6562 28.3125 55.25 28.3125ZM41.9375 1.875C48.7812 1.875 54.3125 7.40625 54.3125 14.1562C54.3125 20.9062 48.7812 26.4375 42.0312 26.4375C35.2812 26.4375 29.75 20.9062 29.75 14.1562C29.75 7.40625 35.1875 1.875 41.9375 1.875ZM14.0938 22.9688C14.5625 21.6562 15.875 20.8125 17.2812 20.8125H29.4688C31.8125 25.3125 36.5 28.3125 41.9375 28.3125C43.4375 28.3125 44.8438 28.125 46.1562 27.6562C46.25 27.75 48.5 32.5312 48.875 33.1875H9.03125C9.40625 32.625 8.84375 33.9375 14.0938 22.9688ZM2 31.9687V30.8438C2 30.375 2.375 30 2.75 30H4.4375C6.5 30 7.25 31.875 7.4375 32.1562C7.34375 32.3438 7.15625 32.5312 7.0625 32.7188H2.75C2.375 32.7188 2 32.4375 2 31.9687ZM15.125 56.4375C15.125 57.375 14.375 58.125 13.4375 58.125H9.6875C8.75 58.125 8 57.375 8 56.4375V53.4375C9.21875 54.1875 10.625 54.5625 12.0312 54.5625H15.125V56.4375ZM48.3125 58.125H44.5625C43.625 58.125 42.875 57.375 42.875 56.4375V54.6562H45.9687C47.375 54.6562 48.7812 54.2812 50 53.5312V56.5312C50 57.375 49.25 58.125 48.3125 58.125ZM52.4375 45.5625C52.4375 49.3125 49.7187 52.7812 45.9687 52.7812H12.0312C8.28125 52.7812 5.5625 49.2188 5.5625 45.5625V39.5625C5.5625 37.875 6.21875 36.1875 7.53125 34.9688H50.5625C51.125 35.5312 51.5938 36.1875 51.9688 36.9375C52.3438 37.7812 52.5312 38.7188 52.5312 39.5625V45.5625H52.4375ZM56 31.9687C56 32.4375 55.625 32.7188 55.25 32.7188H50.9375C50.75 32.5312 50.6562 32.3438 50.5625 32.1562C50.8438 31.875 51.5 30 53.5625 30H55.25C55.7188 30 56 30.375 56 30.75V31.9687Z" fill="orange"></path>
                                                    <path d="M39.125 17.9062C39.125 17.4375 38.75 16.9687 38.1875 16.9687C37.625 16.9687 37.25 17.3437 37.25 17.9062C37.25 20.1562 38.8438 22.0312 41 22.4062V23.625C41 24.0938 41.375 24.5625 41.9375 24.5625C42.5 24.5625 42.875 24.1875 42.875 23.625V22.4062C45.0312 21.9375 46.625 20.1562 46.625 17.9062C46.625 15.6562 45.0312 13.7812 42.875 13.4062V7.78125C44 8.15625 44.75 9.1875 44.75 10.4062C44.75 10.875 45.125 11.3438 45.6875 11.3438C46.25 11.3438 46.625 10.9688 46.625 10.4062C46.625 8.15625 45.0312 6.28125 42.875 5.90625V4.6875C42.875 4.21875 42.5 3.75 41.9375 3.75C41.375 3.75 41 4.125 41 4.6875V5.90625C38.8438 6.375 37.25 8.15625 37.25 10.4062C37.25 12.6562 38.8438 14.5312 41 14.9062V20.4375C39.9688 20.1562 39.125 19.125 39.125 17.9062ZM44.75 17.9062C44.75 19.125 43.9062 20.1562 42.875 20.5312V15.2812C44 15.5625 44.75 16.6875 44.75 17.9062ZM39.125 10.4062C39.125 9.1875 39.9688 8.15625 41 7.78125V13.125C39.9688 12.6562 39.125 11.625 39.125 10.4062Z" fill="orange"></path>
                                                </svg>