<svg width="26" height="26" viewBox="0 0 26 26" fill="none" xmlns="http://www.w3.org/2000/svg">
                                                                <path d="M13.0001 0.222775C5.95485 0.222775 0.222852 5.95478 0.222852 13C0.222852 20.0452 5.95485 25.7772 13.0001 25.7772C20.0453 25.7772 25.7773 20.0452 25.7773 13C25.7773 5.95478 20.0453 0.222775 13.0001 0.222775ZM13.0001 23.8051C7.04202 23.8051 2.195 18.9581 2.195 13C2.195 7.04195 7.04202 2.19493 13.0001 2.19493C18.9581 2.19493 23.8051 7.04195 23.8051 13C23.8051 18.9581 18.9581 23.8051 13.0001 23.8051Z" fill="white" stroke="Currentcolor" stroke-width="0.4"></path>
                                                                <path d="M13 12.1875C11.6789 12.1875 10.5625 11.4433 10.5625 10.5625C10.5625 9.68175 11.6789 8.9375 13 8.9375C13.7475 8.9375 14.4398 9.1715 14.898 9.57775C14.9777 9.64877 15.0707 9.70335 15.1716 9.73837C15.2724 9.77338 15.3792 9.78814 15.4858 9.7818C15.5924 9.77546 15.6967 9.74814 15.7927 9.70142C15.8887 9.65469 15.9745 9.58947 16.0452 9.5095C16.3442 9.17475 16.3134 8.66125 15.977 8.36225C15.4082 7.85687 14.6445 7.51562 13.8125 7.38075V6.5C13.8125 6.0515 13.4485 5.6875 13 5.6875C12.5515 5.6875 12.1875 6.0515 12.1875 6.5V7.3775C10.335 7.67975 8.9375 8.99275 8.9375 10.5625C8.9375 12.3549 10.7607 13.8125 13 13.8125C14.3211 13.8125 15.4375 14.5568 15.4375 15.4375C15.4375 16.3182 14.3211 17.0625 13 17.0625C12.2525 17.0625 11.5602 16.8285 11.102 16.4222C10.7672 16.1233 10.2537 16.1525 9.95475 16.4905C9.65575 16.8252 9.68663 17.3387 10.023 17.6378C10.5918 18.1448 11.3555 18.4844 12.1875 18.6209V19.5C12.1875 19.9485 12.5515 20.3125 13 20.3125C13.4485 20.3125 13.8125 19.9485 13.8125 19.5V18.6225C15.665 18.3203 17.0625 17.0072 17.0625 15.4375C17.0625 13.6451 15.2393 12.1875 13 12.1875Z" fill="white"></path>
                                                            </svg>