<svg width="58" height="28" viewBox="0 0 58 28" fill="none" xmlns="http://www.w3.org/2000/svg">
                                                    <path d="M44.2499 20.2119C44.0471 20.2952 43.8708 20.4321 43.7399 20.6079C43.609 20.7838 43.5283 20.9919 43.5067 21.21C43.485 21.4282 43.523 21.6481 43.6168 21.8463C43.7105 22.0444 43.8564 22.2134 44.0388 22.335C44.2212 22.4566 44.4332 22.5263 44.6522 22.5366C44.8712 22.5469 45.0889 22.4974 45.2819 22.3935C45.4749 22.2896 45.636 22.1351 45.748 21.9466C45.8599 21.7582 45.9185 21.5428 45.9174 21.3236C45.9164 21.1257 45.8668 20.931 45.773 20.7568C45.6792 20.5825 45.544 20.434 45.3793 20.3242C45.2147 20.2144 45.0255 20.1468 44.8286 20.1272C44.6317 20.1076 44.4329 20.1367 44.2499 20.2119ZM12.4345 22.1815C12.5471 22.2941 12.6809 22.3835 12.8281 22.4445C12.9753 22.5055 13.133 22.5368 13.2924 22.5368C13.4517 22.5368 13.6095 22.5055 13.7567 22.4445C13.9039 22.3835 14.0376 22.2941 14.1503 22.1815C14.263 22.0688 14.3523 21.9351 14.4133 21.7879C14.4743 21.6407 14.5057 21.4829 14.5057 21.3236C14.5057 21.1642 14.4743 21.0065 14.4133 20.8593C14.3523 20.7121 14.263 20.5783 14.1503 20.4657C13.9228 20.2381 13.6142 20.1103 13.2924 20.1103C12.9706 20.1103 12.662 20.2381 12.4345 20.4657C12.2069 20.6932 12.0791 21.0018 12.0791 21.3236C12.0791 21.6453 12.2069 21.9539 12.4345 22.1815ZM33.834 12.8652H31.4174C31.0969 12.8652 30.7896 12.9925 30.563 13.2191C30.3364 13.4458 30.209 13.7531 30.209 14.0736C30.209 14.394 30.3364 14.7014 30.563 14.928C30.7896 15.1546 31.0969 15.2819 31.4174 15.2819H33.834C34.1545 15.2819 34.4619 15.1546 34.6885 14.928C34.9151 14.7014 35.0424 14.394 35.0424 14.0736C35.0424 13.7531 34.9151 13.4458 34.6885 13.2191C34.4619 12.9925 34.1545 12.8652 33.834 12.8652Z" fill="CurrentColor"></path>
                                                    <path d="M55.0278 10.11L44.0319 8.10416L37.1807 2.23166C35.0419 0.35874 36.3832 0.781657 5.36526 0.781657C4.60382 0.780543 3.86136 1.01923 3.24321 1.46386C2.62507 1.90849 2.16263 2.53648 1.92151 3.25874C-0.168906 9.54207 0.0848442 14.2546 0.157344 18.6771C0.12593 19.1721 0.196432 19.6682 0.364487 20.1349C0.532542 20.6016 0.794574 21.0288 1.13437 21.3901C1.47416 21.7514 1.88449 22.0391 2.33996 22.2355C2.79543 22.4319 3.28635 22.5327 3.78234 22.5317H7.40734C7.68467 23.8974 8.42564 25.1253 9.5047 26.0073C10.5838 26.8892 11.9345 27.371 13.3282 27.371C14.7218 27.371 16.0726 26.8892 17.1517 26.0073C18.2307 25.1253 18.9717 23.8974 19.249 22.5317H38.7878C39.0651 23.8974 39.8061 25.1253 40.8851 26.0073C41.9642 26.8892 43.315 27.371 44.7086 27.371C46.1022 27.371 47.453 26.8892 48.5321 26.0073C49.6111 25.1253 50.3521 23.8974 50.6294 22.5317H54.3753C55.3367 22.5317 56.2587 22.1497 56.9385 21.4699C57.6183 20.7901 58.0003 19.8681 58.0003 18.9067V13.6746C58 12.8266 57.7024 12.0055 57.1593 11.3542C56.6162 10.7029 55.8619 10.2626 55.0278 10.11ZM55.5836 15.0642C54.9629 14.8551 54.4105 14.4818 53.985 13.984C53.5594 13.4861 53.2768 12.8823 53.1669 12.2367C55.8132 12.7079 55.5836 12.7321 55.5836 15.0642ZM40.2378 8.03166H30.2086V3.19832C35.489 3.19832 33.8336 2.55791 40.2378 8.03166ZM27.7919 8.03166H21.7503V3.19832H27.7919V8.03166ZM19.3336 3.19832V8.03166H12.3011L13.1107 3.19832H19.3336ZM2.79151 10.4483H4.83359V11.6567C4.83359 11.9771 4.70629 12.2845 4.47968 12.5111C4.25308 12.7377 3.94573 12.865 3.62526 12.865H2.57401C2.61026 12.0554 2.69484 11.2458 2.79151 10.4483ZM13.2919 24.9483C12.575 24.9483 11.8741 24.7357 11.278 24.3374C10.6819 23.9391 10.2172 23.3729 9.94286 22.7105C9.6685 22.0482 9.59671 21.3193 9.73658 20.6161C9.87645 19.9129 10.2217 19.267 10.7287 18.7601C11.2356 18.2531 11.8815 17.9078 12.5847 17.768C13.2879 17.6281 14.0168 17.6999 14.6792 17.9743C15.3415 18.2486 15.9077 18.7133 16.306 19.3094C16.7043 19.9055 16.9169 20.6064 16.9169 21.3233C16.9169 22.2847 16.535 23.2068 15.8552 23.8866C15.1754 24.5664 14.2533 24.9483 13.2919 24.9483ZM44.7086 24.9483C43.9916 24.9483 43.2908 24.7357 42.6947 24.3374C42.0985 23.9391 41.6339 23.3729 41.3595 22.7105C41.0852 22.0482 41.0134 21.3193 41.1532 20.6161C41.2931 19.9129 41.6384 19.267 42.1453 18.7601C42.6523 18.2531 43.2982 17.9078 44.0014 17.768C44.7046 17.6281 45.4334 17.6999 46.0958 17.9743C46.7582 18.2486 47.3243 18.7133 47.7227 19.3094C48.121 19.9055 48.3336 20.6064 48.3336 21.3233C48.3336 22.2847 47.9517 23.2068 47.2719 23.8866C46.592 24.5664 45.67 24.9483 44.7086 24.9483ZM54.3753 20.115H50.6294C50.3521 18.7492 49.6111 17.5213 48.5321 16.6394C47.453 15.7574 46.1022 15.2756 44.7086 15.2756C43.315 15.2756 41.9642 15.7574 40.8851 16.6394C39.8061 17.5213 39.0651 18.7492 38.7878 20.115H19.2128C18.9354 18.7492 18.1945 17.5213 17.1154 16.6394C16.0363 15.7574 14.6856 15.2756 13.2919 15.2756C11.8983 15.2756 10.5475 15.7574 9.46845 16.6394C8.38939 17.5213 7.64842 18.7492 7.37109 20.115C1.89734 20.115 2.61026 20.84 2.53776 15.2817H3.62526C4.58667 15.2817 5.5087 14.8997 6.18852 14.2199C6.86834 13.5401 7.25026 12.6181 7.25026 11.6567V9.23999C7.25026 8.91952 7.12295 8.61217 6.89635 8.38557C6.66974 8.15896 6.3624 8.03166 6.04193 8.03166H3.19026C3.44855 6.67431 3.79158 5.33446 4.21734 4.01999C4.59193 2.92041 5.26859 3.19832 10.6578 3.19832C9.93276 7.51207 9.44943 8.45457 10.4523 9.59041C11.4553 10.7262 10.8753 10.4483 29.0003 10.4483C46.2673 10.4483 41.4823 10.0979 50.7503 11.7896C50.7802 13.1594 51.2749 14.4784 52.1531 15.5301C53.0314 16.5818 54.241 17.3038 55.5836 17.5775V18.9067C55.5836 19.2271 55.4563 19.5345 55.2297 19.7611C55.0031 19.9877 54.6957 20.115 54.3753 20.115Z" fill="CurrentColor"></path>
                                                </svg>